<mxfile host="app.diagrams.net" modified="2023-11-29T08:15:23.690Z" agent="Mozilla/5.0 (Windows NT 10.0; Win64; x64; rv:120.0) Gecko/20100101 Firefox/120.0" version="22.1.4" etag="O_ARufU4Dnq7AxYl_UnM" type="github">
  <diagram name="第 1 页" id="jWuUNgEPhIPHbH1UCZEl">
    <mxGraphModel>
      <root>
        <mxCell id="0" />
        <mxCell id="1" parent="0" />
      </root>
    </mxGraphModel>
  </diagram>
</mxfile>
